<svg xmlns="http://www.w3.org/2000/svg" xmlns:xlink="http://www.w3.org/1999/xlink" width="46" zoomAndPan="magnify" viewBox="0 0 34.5 41.25" height="55" preserveAspectRatio="xMidYMid meet" version="1.0"><defs><clipPath id="cd10c918b2"><path d="M 18.421875 24.351562 L 30.207031 24.351562 L 30.207031 40.511719 L 18.421875 40.511719 Z M 18.421875 24.351562 " clip-rule="nonzero"/></clipPath><clipPath id="cca184a933"><path d="M 0.0625 0 L 30.261719 0 L 30.261719 40.511719 L 0.0625 40.511719 Z M 0.0625 0 " clip-rule="nonzero"/></clipPath></defs><g clip-path="url(#cd10c918b2)"><path fill="#211d1d" d="M 28.863281 35.605469 L 28.863281 35.160156 L 29.8125 34.726562 L 29.8125 35.605469 Z M 28.792969 31.445312 L 29.027344 31.445312 L 29.519531 34.414062 L 29.34375 34.496094 Z M 28.199219 31.035156 L 28.199219 29.964844 L 29.484375 29.964844 L 29.484375 31.035156 Z M 27.800781 32.960938 L 24.316406 34.511719 L 20.828125 32.960938 L 20.828125 29.496094 L 27.800781 29.496094 Z M 27.246094 37.101562 C 27.246094 37.515625 26.917969 37.851562 26.515625 37.851562 C 26.117188 37.851562 25.789062 37.515625 25.789062 37.101562 C 25.789062 36.6875 26.117188 36.351562 26.515625 36.351562 C 26.917969 36.351562 27.246094 36.6875 27.246094 37.101562 Z M 22.839844 37.101562 C 22.839844 37.515625 22.515625 37.851562 22.113281 37.851562 C 21.710938 37.851562 21.386719 37.515625 21.386719 37.101562 C 21.386719 36.6875 21.710938 36.351562 22.113281 36.351562 C 22.515625 36.351562 22.839844 36.6875 22.839844 37.101562 Z M 24.984375 27.949219 L 24.984375 29.085938 L 23.644531 29.085938 L 23.644531 27.949219 Z M 20.84375 27.539062 C 20.101562 27.539062 19.496094 26.917969 19.496094 26.152344 C 19.496094 25.386719 20.101562 24.761719 20.84375 24.761719 L 27.789062 24.761719 C 28.53125 24.761719 29.132812 25.386719 29.132812 26.152344 C 29.132812 26.917969 28.53125 27.539062 27.789062 27.539062 Z M 20.429688 31.035156 L 19.144531 31.035156 L 19.144531 29.964844 L 20.429688 29.964844 Z M 19.289062 34.496094 L 19.109375 34.414062 L 19.605469 31.445312 L 19.839844 31.445312 Z M 19.765625 35.160156 L 19.765625 35.605469 L 18.820312 35.605469 L 18.820312 34.726562 Z M 30.207031 36.015625 L 30.207031 34.097656 L 29.894531 34.242188 L 29.429688 31.445312 L 29.882812 31.445312 L 29.882812 29.554688 L 28.199219 29.554688 L 28.199219 29.085938 L 25.382812 29.085938 L 25.382812 27.949219 L 27.789062 27.949219 C 28.75 27.949219 29.53125 27.144531 29.53125 26.152344 C 29.53125 25.160156 28.75 24.351562 27.789062 24.351562 L 20.84375 24.351562 C 19.882812 24.351562 19.101562 25.160156 19.101562 26.152344 C 19.101562 27.144531 19.882812 27.949219 20.84375 27.949219 L 23.25 27.949219 L 23.25 29.085938 L 20.429688 29.085938 L 20.429688 29.554688 L 18.746094 29.554688 L 18.746094 31.445312 L 19.203125 31.445312 L 18.738281 34.242188 L 18.421875 34.097656 L 18.421875 36.015625 L 19.09375 36.015625 L 19.09375 36.523438 C 18.710938 36.617188 18.421875 36.972656 18.421875 37.394531 C 18.421875 37.890625 18.8125 38.292969 19.292969 38.292969 L 19.292969 37.882812 C 19.03125 37.882812 18.820312 37.664062 18.820312 37.394531 C 18.820312 37.125 19.03125 36.90625 19.292969 36.90625 C 19.554688 36.90625 19.765625 37.125 19.765625 37.394531 L 20.164062 37.394531 C 20.164062 36.972656 19.875 36.617188 19.492188 36.523438 L 19.492188 36.015625 L 20.164062 36.015625 L 20.164062 34.894531 L 19.660156 34.664062 L 20.242188 31.445312 L 20.429688 31.445312 L 20.429688 33.230469 L 21.914062 33.890625 L 21.914062 35.960938 C 21.390625 36.058594 20.988281 36.53125 20.988281 37.101562 C 20.988281 37.671875 21.390625 38.148438 21.914062 38.242188 L 21.914062 40.148438 L 21.242188 40.148438 L 21.242188 40.554688 L 22.984375 40.554688 L 22.984375 40.148438 L 22.3125 40.148438 L 22.3125 38.242188 C 22.835938 38.148438 23.238281 37.671875 23.238281 37.101562 C 23.238281 36.53125 22.835938 36.058594 22.3125 35.960938 L 22.3125 34.066406 L 24.316406 34.960938 L 26.320312 34.066406 L 26.320312 35.960938 C 25.792969 36.058594 25.394531 36.53125 25.394531 37.101562 C 25.394531 37.671875 25.792969 38.148438 26.320312 38.242188 L 26.320312 40.148438 L 25.648438 40.148438 L 25.648438 40.554688 L 27.386719 40.554688 L 27.386719 40.148438 L 26.714844 40.148438 L 26.714844 38.242188 C 27.242188 38.148438 27.640625 37.671875 27.640625 37.101562 C 27.640625 36.53125 27.242188 36.058594 26.714844 35.960938 L 26.714844 33.890625 L 28.199219 33.230469 L 28.199219 31.445312 L 28.386719 31.445312 L 28.96875 34.664062 L 28.46875 34.894531 L 28.46875 36.015625 L 29.140625 36.015625 L 29.140625 36.523438 C 28.753906 36.617188 28.46875 36.972656 28.46875 37.394531 L 28.863281 37.394531 C 28.863281 37.125 29.078125 36.90625 29.339844 36.90625 C 29.597656 36.90625 29.8125 37.125 29.8125 37.394531 C 29.8125 37.664062 29.597656 37.882812 29.339844 37.882812 L 29.339844 38.292969 C 29.816406 38.292969 30.207031 37.890625 30.207031 37.394531 C 30.207031 36.972656 29.921875 36.617188 29.535156 36.523438 L 29.535156 36.015625 L 30.207031 36.015625 " fill-opacity="1" fill-rule="nonzero"/></g><path fill="#211d1d" d="M 22.238281 26.648438 C 22.195312 26.605469 22.109375 26.429688 22.109375 26.152344 C 22.109375 25.871094 22.195312 25.695312 22.238281 25.652344 C 22.285156 25.695312 22.371094 25.871094 22.371094 26.152344 C 22.371094 26.429688 22.285156 26.605469 22.238281 26.648438 Z M 22.238281 25.238281 C 21.933594 25.238281 21.710938 25.621094 21.710938 26.152344 C 21.710938 26.679688 21.933594 27.066406 22.238281 27.066406 C 22.546875 27.066406 22.765625 26.679688 22.765625 26.152344 C 22.765625 25.621094 22.546875 25.238281 22.238281 25.238281 " fill-opacity="1" fill-rule="nonzero"/><path fill="#211d1d" d="M 26.390625 26.648438 C 26.34375 26.605469 26.261719 26.429688 26.261719 26.152344 C 26.261719 25.871094 26.34375 25.695312 26.390625 25.652344 C 26.4375 25.695312 26.523438 25.871094 26.523438 26.152344 C 26.523438 26.429688 26.4375 26.605469 26.390625 26.648438 Z M 26.390625 25.238281 C 26.085938 25.238281 25.863281 25.621094 25.863281 26.152344 C 25.863281 26.679688 26.085938 27.066406 26.390625 27.066406 C 26.695312 27.066406 26.917969 26.679688 26.917969 26.152344 C 26.917969 25.621094 26.695312 25.238281 26.390625 25.238281 " fill-opacity="1" fill-rule="nonzero"/><g clip-path="url(#cca184a933)"><path fill="#18181a" d="M 30.144531 4.300781 L 30.121094 4.261719 C 28.300781 1.519531 24.90625 0.308594 21.835938 1.164062 C 21.828125 1.148438 21.824219 1.132812 21.816406 1.117188 L 21.164062 0.136719 C 21.089844 0.0195312 20.933594 -0.0078125 20.820312 0.0664062 L 17.300781 2.433594 C 17.1875 2.511719 17.15625 2.667969 17.234375 2.78125 L 17.386719 3.011719 L 2.988281 12.703125 C 2.683594 12.382812 2.253906 12.179688 1.777344 12.179688 C 0.851562 12.179688 0.0976562 12.941406 0.0976562 13.875 C 0.0976562 14.808594 0.851562 15.566406 1.777344 15.566406 C 1.804688 15.566406 1.828125 15.566406 1.851562 15.5625 L 7.152344 37.902344 C 3.953125 37.949219 1.226562 38.652344 0.3125 39.679688 C 0.109375 39.90625 0.109375 40.199219 0.3125 40.429688 C 0.359375 40.484375 0.429688 40.515625 0.5 40.515625 L 14.507812 40.515625 C 14.582031 40.515625 14.648438 40.484375 14.695312 40.429688 C 14.898438 40.199219 14.898438 39.90625 14.695312 39.679688 C 13.773438 38.644531 11.023438 37.941406 7.792969 37.902344 L 2.457031 15.421875 C 3.046875 15.160156 3.460938 14.566406 3.460938 13.875 C 3.460938 13.644531 3.414062 13.425781 3.332031 13.226562 L 17.730469 3.535156 L 17.882812 3.765625 C 17.894531 3.777344 17.90625 3.789062 17.917969 3.800781 C 15.957031 6.335938 15.765625 9.957031 17.585938 12.695312 L 17.625 12.753906 C 17.671875 12.824219 17.75 12.863281 17.828125 12.863281 C 17.878906 12.863281 17.925781 12.847656 17.96875 12.820312 L 30.085938 4.664062 C 30.199219 4.589844 30.21875 4.414062 30.144531 4.300781 Z M 2.121094 15.007812 C 2.09375 15.007812 2.066406 15.003906 2.039062 15.011719 C 2.011719 15.019531 1.988281 15.03125 1.964844 15.046875 C 1.902344 15.054688 1.84375 15.066406 1.777344 15.066406 C 1.125 15.066406 0.597656 14.53125 0.597656 13.875 C 0.597656 13.21875 1.125 12.683594 1.777344 12.683594 C 2.429688 12.683594 2.960938 13.21875 2.960938 13.875 C 2.960938 14.410156 2.605469 14.859375 2.121094 15.007812 Z M 1.777344 13.234375 C 1.429688 13.234375 1.144531 13.519531 1.144531 13.875 C 1.144531 14.226562 1.429688 14.511719 1.777344 14.511719 C 2.128906 14.511719 2.414062 14.226562 2.414062 13.875 C 2.414062 13.519531 2.128906 13.234375 1.777344 13.234375 Z M 1.777344 13.234375 " fill-opacity="1" fill-rule="nonzero"/></g></svg>