<svg xmlns="http://www.w3.org/2000/svg" xmlns:xlink="http://www.w3.org/1999/xlink" width="46" zoomAndPan="magnify" viewBox="0 0 34.5 41.25" height="55" preserveAspectRatio="xMidYMid meet" version="1.0"><defs><clipPath id="7736e1111d"><path d="M 2.691406 8 L 31.316406 8 L 31.316406 35.699219 L 2.691406 35.699219 Z M 2.691406 8 " clip-rule="nonzero"/></clipPath></defs><g clip-path="url(#7736e1111d)"><path fill="#ffc107" d="M 5.574219 35.40625 C 5.359375 35.40625 5.152344 35.382812 4.941406 35.335938 C 4.734375 35.285156 4.535156 35.214844 4.34375 35.121094 C 4.15625 35.027344 3.976562 34.910156 3.8125 34.773438 C 3.648438 34.636719 3.503906 34.484375 3.375 34.316406 C 3.246094 34.144531 3.140625 33.964844 3.054688 33.769531 C 2.96875 33.574219 2.90625 33.371094 2.867188 33.160156 C 2.828125 32.953125 2.8125 32.742188 2.820312 32.527344 C 2.832031 32.316406 2.867188 32.105469 2.925781 31.902344 C 2.984375 31.699219 3.066406 31.503906 3.167969 31.316406 C 3.273438 31.128906 3.394531 30.957031 3.539062 30.800781 C 3.683594 30.644531 3.84375 30.507812 4.019531 30.386719 C 4.195312 30.265625 4.382812 30.167969 4.582031 30.09375 C 4.78125 30.015625 4.988281 29.964844 5.199219 29.933594 C 5.410156 29.90625 5.621094 29.902344 5.832031 29.921875 C 6.042969 29.941406 6.25 29.988281 6.453125 30.054688 C 6.65625 30.125 6.84375 30.214844 7.027344 30.328125 L 13.425781 23.917969 C 13.050781 23.441406 12.773438 22.910156 12.589844 22.328125 C 12.410156 21.75 12.335938 21.15625 12.375 20.546875 C 12.410156 19.941406 12.550781 19.359375 12.800781 18.804688 C 13.050781 18.25 13.390625 17.757812 13.816406 17.324219 L 10.988281 13.710938 C 10.785156 13.804688 10.574219 13.875 10.355469 13.917969 C 10.136719 13.960938 9.914062 13.976562 9.691406 13.96875 C 9.46875 13.957031 9.25 13.917969 9.035156 13.855469 C 8.820312 13.789062 8.617188 13.703125 8.421875 13.589844 C 8.230469 13.472656 8.054688 13.339844 7.894531 13.183594 C 7.734375 13.023438 7.597656 12.851562 7.480469 12.660156 C 7.363281 12.46875 7.269531 12.269531 7.203125 12.054688 C 7.132812 11.84375 7.09375 11.625 7.078125 11.402344 C 7.0625 11.175781 7.074219 10.957031 7.117188 10.734375 C 7.15625 10.515625 7.21875 10.300781 7.3125 10.097656 C 7.402344 9.894531 7.515625 9.703125 7.65625 9.527344 C 7.792969 9.351562 7.949219 9.195312 8.125 9.054688 C 8.300781 8.917969 8.492188 8.804688 8.695312 8.710938 C 8.902344 8.621094 9.113281 8.554688 9.332031 8.515625 C 9.554688 8.472656 9.773438 8.460938 10 8.476562 C 10.222656 8.488281 10.441406 8.53125 10.652344 8.597656 C 10.867188 8.667969 11.070312 8.757812 11.257812 8.875 C 11.449219 8.992188 11.625 9.128906 11.78125 9.289062 C 11.9375 9.449219 12.074219 9.625 12.1875 9.816406 C 12.300781 10.011719 12.390625 10.214844 12.457031 10.429688 C 12.519531 10.640625 12.558594 10.859375 12.570312 11.085938 C 12.582031 11.308594 12.5625 11.53125 12.519531 11.75 C 12.476562 11.96875 12.410156 12.179688 12.316406 12.382812 C 12.21875 12.585938 12.101562 12.773438 11.960938 12.949219 L 14.792969 16.5625 C 15.226562 16.304688 15.683594 16.113281 16.171875 15.992188 C 16.660156 15.875 17.15625 15.828125 17.660156 15.859375 C 18.160156 15.886719 18.648438 15.992188 19.117188 16.167969 C 19.589844 16.347656 20.023438 16.589844 20.421875 16.898438 L 25.023438 12.265625 C 24.90625 12.074219 24.808594 11.871094 24.738281 11.660156 C 24.667969 11.445312 24.625 11.226562 24.609375 11.003906 C 24.589844 10.78125 24.601562 10.558594 24.636719 10.335938 C 24.675781 10.117188 24.738281 9.902344 24.828125 9.695312 C 24.917969 9.488281 25.03125 9.296875 25.167969 9.121094 C 25.304688 8.941406 25.460938 8.78125 25.632812 8.640625 C 25.808594 8.5 26 8.382812 26.203125 8.289062 C 26.40625 8.195312 26.621094 8.128906 26.839844 8.085938 C 27.058594 8.042969 27.28125 8.027344 27.507812 8.042969 C 27.730469 8.054688 27.949219 8.09375 28.164062 8.15625 C 28.378906 8.222656 28.582031 8.3125 28.773438 8.429688 C 28.96875 8.542969 29.144531 8.679688 29.304688 8.839844 C 29.460938 9 29.601562 9.171875 29.714844 9.363281 C 29.832031 9.558594 29.925781 9.761719 29.992188 9.972656 C 30.058594 10.1875 30.097656 10.40625 30.109375 10.632812 C 30.125 10.855469 30.109375 11.078125 30.070312 11.300781 C 30.027344 11.519531 29.960938 11.730469 29.867188 11.9375 C 29.777344 12.140625 29.660156 12.332031 29.519531 12.507812 C 29.382812 12.683594 29.222656 12.839844 29.042969 12.976562 C 28.867188 13.113281 28.675781 13.226562 28.46875 13.320312 C 28.265625 13.410156 28.050781 13.472656 27.832031 13.511719 C 27.609375 13.550781 27.386719 13.5625 27.164062 13.546875 C 26.9375 13.53125 26.71875 13.488281 26.507812 13.417969 C 26.292969 13.347656 26.089844 13.253906 25.902344 13.136719 L 21.296875 17.769531 C 21.777344 18.378906 22.097656 19.066406 22.257812 19.828125 C 22.417969 20.589844 22.398438 21.34375 22.203125 22.097656 L 26.136719 23.660156 C 26.261719 23.484375 26.402344 23.320312 26.566406 23.175781 C 26.730469 23.03125 26.90625 22.910156 27.097656 22.808594 C 27.289062 22.703125 27.492188 22.625 27.699219 22.570312 C 27.910156 22.515625 28.125 22.488281 28.34375 22.484375 C 28.558594 22.480469 28.773438 22.503906 28.988281 22.550781 C 29.199219 22.597656 29.402344 22.667969 29.597656 22.765625 C 29.792969 22.859375 29.972656 22.976562 30.140625 23.117188 C 30.308594 23.257812 30.457031 23.414062 30.585938 23.585938 C 30.71875 23.761719 30.824219 23.949219 30.910156 24.148438 C 30.996094 24.347656 31.058594 24.554688 31.09375 24.769531 C 31.128906 24.984375 31.140625 25.199219 31.125 25.414062 C 31.109375 25.632812 31.070312 25.84375 31.003906 26.050781 C 30.941406 26.257812 30.851562 26.457031 30.738281 26.640625 C 30.628906 26.828125 30.496094 27 30.34375 27.152344 C 30.191406 27.308594 30.023438 27.445312 29.835938 27.558594 C 29.652344 27.671875 29.457031 27.765625 29.25 27.832031 C 29.046875 27.902344 28.832031 27.945312 28.617188 27.960938 C 28.398438 27.980469 28.183594 27.972656 27.96875 27.941406 C 27.753906 27.90625 27.546875 27.847656 27.347656 27.765625 C 27.144531 27.683594 26.957031 27.578125 26.78125 27.453125 C 26.605469 27.324219 26.445312 27.179688 26.304688 27.011719 C 26.164062 26.847656 26.042969 26.667969 25.945312 26.476562 C 25.84375 26.28125 25.769531 26.078125 25.71875 25.867188 C 25.667969 25.65625 25.644531 25.441406 25.644531 25.222656 C 25.644531 25.085938 25.65625 24.949219 25.679688 24.8125 L 21.746094 23.25 C 21.574219 23.566406 21.367188 23.863281 21.128906 24.132812 C 20.890625 24.40625 20.628906 24.652344 20.339844 24.867188 C 20.046875 25.082031 19.738281 25.261719 19.40625 25.410156 C 19.078125 25.558594 18.734375 25.667969 18.382812 25.742188 C 18.027344 25.816406 17.667969 25.851562 17.308594 25.847656 C 16.945312 25.84375 16.589844 25.800781 16.238281 25.71875 C 15.882812 25.636719 15.546875 25.519531 15.21875 25.363281 C 14.890625 25.207031 14.585938 25.019531 14.300781 24.796875 L 7.902344 31.207031 C 8.167969 31.628906 8.308594 32.089844 8.320312 32.589844 C 8.335938 33.089844 8.21875 33.558594 7.976562 33.992188 C 7.734375 34.429688 7.398438 34.777344 6.96875 35.03125 C 6.539062 35.28125 6.074219 35.410156 5.574219 35.410156 Z M 28.394531 26.746094 C 28.59375 26.746094 28.785156 26.707031 28.96875 26.628906 C 29.15625 26.554688 29.320312 26.445312 29.460938 26.304688 C 29.601562 26.164062 29.710938 26 29.789062 25.8125 C 29.863281 25.628906 29.902344 25.4375 29.902344 25.238281 C 29.90625 25.035156 29.867188 24.84375 29.789062 24.660156 C 29.714844 24.472656 29.605469 24.308594 29.464844 24.167969 C 29.324219 24.027344 29.160156 23.917969 28.976562 23.839844 C 28.792969 23.761719 28.597656 23.722656 28.398438 23.722656 C 28.199219 23.722656 28.007812 23.757812 27.820312 23.835938 C 27.636719 23.910156 27.472656 24.019531 27.328125 24.160156 C 27.1875 24.300781 27.078125 24.464844 27 24.648438 C 26.921875 24.832031 26.882812 25.023438 26.882812 25.222656 C 26.882812 25.425781 26.917969 25.617188 26.996094 25.804688 C 27.074219 25.988281 27.179688 26.152344 27.324219 26.296875 C 27.464844 26.4375 27.628906 26.546875 27.8125 26.625 C 28 26.703125 28.191406 26.738281 28.394531 26.742188 Z M 4.0625 32.664062 C 4.0625 32.863281 4.101562 33.054688 4.175781 33.242188 C 4.253906 33.425781 4.363281 33.589844 4.503906 33.730469 C 4.644531 33.875 4.808594 33.984375 4.996094 34.058594 C 5.179688 34.136719 5.371094 34.175781 5.574219 34.175781 C 5.773438 34.175781 5.964844 34.136719 6.152344 34.0625 C 6.335938 33.984375 6.5 33.875 6.640625 33.734375 C 6.785156 33.59375 6.894531 33.429688 6.96875 33.242188 C 7.046875 33.058594 7.085938 32.867188 7.085938 32.664062 C 7.085938 32.464844 7.046875 32.273438 6.96875 32.085938 C 6.894531 31.902344 6.785156 31.738281 6.640625 31.597656 C 6.5 31.453125 6.335938 31.34375 6.152344 31.269531 C 5.96875 31.191406 5.773438 31.152344 5.574219 31.152344 C 5.375 31.152344 5.183594 31.191406 4.996094 31.269531 C 4.8125 31.34375 4.648438 31.453125 4.507812 31.59375 C 4.367188 31.734375 4.257812 31.898438 4.179688 32.082031 C 4.101562 32.265625 4.0625 32.457031 4.0625 32.660156 Z M 9.832031 9.710938 C 9.632812 9.710938 9.4375 9.75 9.253906 9.824219 C 9.070312 9.902344 8.90625 10.011719 8.761719 10.152344 C 8.621094 10.296875 8.511719 10.457031 8.4375 10.644531 C 8.359375 10.828125 8.320312 11.023438 8.320312 11.222656 C 8.320312 11.421875 8.359375 11.613281 8.4375 11.800781 C 8.511719 11.984375 8.621094 12.148438 8.761719 12.289062 C 8.90625 12.433594 9.070312 12.542969 9.253906 12.617188 C 9.4375 12.695312 9.632812 12.734375 9.832031 12.734375 C 10.03125 12.734375 10.226562 12.695312 10.410156 12.617188 C 10.59375 12.542969 10.757812 12.433594 10.902344 12.289062 C 11.042969 12.148438 11.152344 11.984375 11.226562 11.800781 C 11.304688 11.613281 11.34375 11.421875 11.34375 11.222656 C 11.34375 11.023438 11.304688 10.828125 11.226562 10.644531 C 11.152344 10.460938 11.042969 10.296875 10.898438 10.152344 C 10.757812 10.011719 10.59375 9.902344 10.410156 9.828125 C 10.226562 9.75 10.03125 9.710938 9.832031 9.710938 Z M 28.855469 10.804688 C 28.855469 10.605469 28.820312 10.410156 28.742188 10.226562 C 28.664062 10.039062 28.554688 9.878906 28.414062 9.734375 C 28.273438 9.59375 28.109375 9.484375 27.925781 9.40625 C 27.738281 9.332031 27.546875 9.292969 27.347656 9.292969 C 27.144531 9.292969 26.953125 9.332031 26.765625 9.40625 C 26.582031 9.484375 26.417969 9.59375 26.277344 9.734375 C 26.136719 9.878906 26.027344 10.039062 25.949219 10.226562 C 25.871094 10.410156 25.835938 10.605469 25.835938 10.804688 C 25.835938 11.003906 25.871094 11.199219 25.949219 11.382812 C 26.027344 11.566406 26.136719 11.730469 26.277344 11.871094 C 26.417969 12.015625 26.582031 12.125 26.765625 12.199219 C 26.953125 12.277344 27.144531 12.316406 27.347656 12.316406 C 27.546875 12.316406 27.738281 12.277344 27.925781 12.199219 C 28.109375 12.125 28.273438 12.015625 28.414062 11.871094 C 28.558594 11.730469 28.664062 11.566406 28.742188 11.382812 C 28.820312 11.199219 28.859375 11.003906 28.859375 10.804688 Z M 21.125 20.847656 C 21.125 20.347656 21.027344 19.867188 20.835938 19.40625 C 20.648438 18.945312 20.375 18.539062 20.023438 18.1875 C 19.671875 17.832031 19.261719 17.5625 18.800781 17.371094 C 18.339844 17.179688 17.863281 17.082031 17.363281 17.082031 C 16.863281 17.082031 16.382812 17.179688 15.921875 17.367188 C 15.460938 17.558594 15.054688 17.832031 14.703125 18.183594 C 14.347656 18.539062 14.078125 18.945312 13.886719 19.40625 C 13.695312 19.867188 13.601562 20.347656 13.601562 20.84375 C 13.601562 21.34375 13.695312 21.824219 13.886719 22.285156 C 14.078125 22.746094 14.351562 23.152344 14.703125 23.503906 C 15.054688 23.859375 15.464844 24.128906 15.925781 24.320312 C 16.386719 24.511719 16.867188 24.605469 17.363281 24.605469 C 17.863281 24.605469 18.34375 24.507812 18.800781 24.320312 C 19.261719 24.128906 19.667969 23.855469 20.023438 23.503906 C 20.375 23.152344 20.648438 22.746094 20.835938 22.285156 C 21.027344 21.824219 21.125 21.34375 21.125 20.847656 Z M 21.125 20.847656 " fill-opacity="1" fill-rule="nonzero"/></g></svg>