<svg xmlns="http://www.w3.org/2000/svg" xmlns:xlink="http://www.w3.org/1999/xlink" width="180" zoomAndPan="magnify" viewBox="0 0 135 135.000003" height="180" preserveAspectRatio="xMidYMid meet" version="1.0"><defs><clipPath id="39dfcc5288"><path d="M 0.496094 0 L 134.503906 0 L 134.503906 134.007812 L 0.496094 134.007812 Z M 0.496094 0 " clip-rule="nonzero"/></clipPath><clipPath id="8d466ca561"><path d="M 129 57 L 132.605469 57 L 132.605469 61 L 129 61 Z M 129 57 " clip-rule="nonzero"/></clipPath><clipPath id="17ee21bdff"><path d="M 71 4.699219 L 75 4.699219 L 75 8 L 71 8 Z M 71 4.699219 " clip-rule="nonzero"/></clipPath><clipPath id="2d50702a50"><path d="M 76 116 L 80 116 L 80 120.839844 L 76 120.839844 Z M 76 116 " clip-rule="nonzero"/></clipPath><clipPath id="5e99955ac8"><path d="M 2.320312 67 L 6 67 L 6 72 L 2.320312 72 Z M 2.320312 67 " clip-rule="nonzero"/></clipPath><clipPath id="bb817153ce"><path d="M 78 115 L 84 115 L 84 120.839844 L 78 120.839844 Z M 78 115 " clip-rule="nonzero"/></clipPath><clipPath id="9838f04058"><path d="M 44.519531 44 L 70 44 L 70 87 L 44.519531 87 Z M 44.519531 44 " clip-rule="nonzero"/></clipPath><clipPath id="9df617cf17"><path d="M 65 47 L 90.675781 47 L 90.675781 90 L 65 90 Z M 65 47 " clip-rule="nonzero"/></clipPath><clipPath id="8412ebbaf7"><path d="M 52 40.203125 L 83 40.203125 L 83 93.804688 L 52 93.804688 Z M 52 40.203125 " clip-rule="nonzero"/></clipPath></defs><g clip-path="url(#39dfcc5288)"><path fill="#ffffff" d="M 0.496094 0 L 134.503906 0 L 134.503906 134.007812 L 0.496094 134.007812 Z M 0.496094 0 " fill-opacity="1" fill-rule="nonzero"/><path fill="#3f51b5" d="M 0.496094 0 L 134.503906 0 L 134.503906 134.007812 L 0.496094 134.007812 Z M 0.496094 0 " fill-opacity="1" fill-rule="nonzero"/></g><path fill="#ffffff" d="M 86.109375 99.015625 L 47.945312 99.015625 L 28.867188 65.964844 L 47.945312 32.917969 L 86.109375 32.917969 L 105.1875 65.964844 Z M 48.835938 97.476562 L 85.21875 97.476562 L 103.410156 65.964844 L 85.21875 34.457031 L 48.835938 34.457031 L 30.640625 65.964844 Z M 48.835938 97.476562 " fill-opacity="1" fill-rule="nonzero"/><path fill="#ffffff" d="M 119.328125 67.308594 C 119.328125 67.308594 119.316406 67.308594 119.308594 67.308594 L 103.832031 66.605469 C 103.574219 66.59375 103.378906 66.378906 103.390625 66.125 C 103.402344 65.871094 103.617188 65.671875 103.871094 65.683594 L 119.347656 66.386719 C 119.605469 66.398438 119.800781 66.617188 119.789062 66.871094 C 119.777344 67.117188 119.574219 67.308594 119.328125 67.308594 Z M 119.328125 67.308594 " fill-opacity="1" fill-rule="nonzero"/><path fill="#ffffff" d="M 119.179688 68.402344 C 120.042969 68.441406 120.769531 67.773438 120.808594 66.914062 C 120.847656 66.050781 120.183594 65.320312 119.320312 65.285156 C 118.460938 65.246094 117.730469 65.910156 117.691406 66.773438 C 117.652344 67.632812 118.320312 68.363281 119.179688 68.402344 Z M 119.179688 68.402344 " fill-opacity="1" fill-rule="nonzero"/><path fill="#ffffff" d="M 125.222656 70.644531 L 125.214844 70.644531 L 101.722656 70.265625 C 101.464844 70.261719 101.261719 70.050781 101.269531 69.796875 C 101.273438 69.542969 101.476562 69.34375 101.730469 69.34375 L 101.738281 69.34375 L 125.230469 69.71875 C 125.484375 69.726562 125.6875 69.933594 125.683594 70.1875 C 125.679688 70.441406 125.472656 70.644531 125.222656 70.644531 Z M 125.222656 70.644531 " fill-opacity="1" fill-rule="nonzero"/><path fill="#ffffff" d="M 126.496094 69.40625 C 126.601562 69.585938 126.664062 69.777344 126.691406 69.980469 C 126.71875 70.1875 126.703125 70.390625 126.648438 70.589844 C 126.59375 70.789062 126.503906 70.972656 126.378906 71.132812 C 126.25 71.296875 126.097656 71.433594 125.917969 71.535156 C 125.738281 71.636719 125.546875 71.703125 125.339844 71.726562 C 125.136719 71.753906 124.933594 71.742188 124.734375 71.6875 C 124.535156 71.632812 124.351562 71.542969 124.1875 71.414062 C 124.023438 71.289062 123.890625 71.136719 123.789062 70.957031 C 123.683594 70.777344 123.621094 70.585938 123.59375 70.378906 C 123.566406 70.171875 123.582031 69.972656 123.636719 69.769531 C 123.691406 69.570312 123.78125 69.390625 123.90625 69.226562 C 124.035156 69.0625 124.1875 68.929688 124.367188 68.824219 C 124.546875 68.722656 124.738281 68.660156 124.945312 68.632812 C 125.148438 68.605469 125.351562 68.621094 125.550781 68.675781 C 125.75 68.726562 125.933594 68.820312 126.097656 68.945312 C 126.261719 69.070312 126.394531 69.226562 126.496094 69.40625 Z M 126.496094 69.40625 " fill-opacity="1" fill-rule="nonzero"/><path fill="#ffffff" d="M 118.855469 74.777344 C 118.855469 74.777344 118.84375 74.777344 118.839844 74.777344 L 100.300781 74.222656 C 100.046875 74.214844 99.847656 74.003906 99.855469 73.75 C 99.863281 73.5 100.066406 73.300781 100.316406 73.300781 C 100.320312 73.300781 100.324219 73.300781 100.332031 73.300781 L 118.867188 73.855469 C 119.121094 73.863281 119.324219 74.074219 119.316406 74.332031 C 119.308594 74.578125 119.101562 74.777344 118.855469 74.777344 Z M 118.855469 74.777344 " fill-opacity="1" fill-rule="nonzero"/><path fill="#ffffff" d="M 118.730469 75.875 C 119.589844 75.902344 120.308594 75.222656 120.335938 74.359375 C 120.363281 73.5 119.683594 72.78125 118.824219 72.753906 C 117.960938 72.726562 117.242188 73.40625 117.214844 74.265625 C 117.191406 75.128906 117.867188 75.847656 118.730469 75.875 Z M 118.730469 75.875 " fill-opacity="1" fill-rule="nonzero"/><path fill="#ffffff" d="M 120.003906 67.628906 C 119.863281 67.628906 119.722656 67.566406 119.632812 67.445312 C 119.480469 67.238281 119.523438 66.949219 119.726562 66.796875 L 130.699219 58.613281 C 130.902344 58.460938 131.191406 58.5 131.34375 58.707031 C 131.496094 58.910156 131.453125 59.199219 131.25 59.351562 L 120.28125 67.539062 C 120.195312 67.601562 120.097656 67.628906 120.003906 67.628906 Z M 120.003906 67.628906 " fill-opacity="1" fill-rule="nonzero"/><g clip-path="url(#8d466ca561)"><path fill="#ffffff" d="M 131.84375 60.28125 C 132.535156 59.765625 132.679688 58.785156 132.160156 58.09375 C 131.644531 57.40625 130.667969 57.261719 129.976562 57.777344 C 129.285156 58.292969 129.144531 59.269531 129.660156 59.964844 C 130.175781 60.652344 131.152344 60.796875 131.84375 60.28125 Z M 131.84375 60.28125 " fill-opacity="1" fill-rule="nonzero"/></g><path fill="#ffffff" d="M 125.828125 70.742188 C 125.691406 70.742188 125.554688 70.679688 125.464844 70.5625 C 125.308594 70.359375 125.34375 70.070312 125.546875 69.914062 L 129.554688 66.816406 C 129.757812 66.660156 130.046875 66.699219 130.203125 66.898438 C 130.359375 67.101562 130.320312 67.390625 130.121094 67.546875 L 126.109375 70.644531 C 126.027344 70.710938 125.925781 70.742188 125.828125 70.742188 Z M 125.828125 70.742188 " fill-opacity="1" fill-rule="nonzero"/><path fill="#ffffff" d="M 130.730469 68.464844 C 131.414062 67.9375 131.539062 66.957031 131.011719 66.277344 C 130.484375 65.59375 129.507812 65.46875 128.824219 65.996094 C 128.140625 66.523438 128.015625 67.5 128.542969 68.183594 C 129.066406 68.867188 130.046875 68.992188 130.730469 68.464844 Z M 130.730469 68.464844 " fill-opacity="1" fill-rule="nonzero"/><path fill="#ffffff" d="M 128.890625 79.457031 C 128.820312 79.457031 128.75 79.445312 128.683594 79.410156 L 119.265625 74.699219 C 119.039062 74.585938 118.949219 74.308594 119.0625 74.082031 C 119.175781 73.855469 119.453125 73.761719 119.679688 73.875 L 129.097656 78.582031 C 129.324219 78.699219 129.417969 78.972656 129.304688 79.203125 C 129.222656 79.363281 129.058594 79.457031 128.890625 79.457031 Z M 128.890625 79.457031 " fill-opacity="1" fill-rule="nonzero"/><path fill="#ffffff" d="M 128.121094 80.359375 C 128.890625 80.746094 129.832031 80.429688 130.214844 79.660156 C 130.601562 78.890625 130.289062 77.953125 129.519531 77.566406 C 128.746094 77.179688 127.808594 77.492188 127.421875 78.265625 C 127.039062 79.035156 127.351562 79.972656 128.121094 80.359375 Z M 128.121094 80.359375 " fill-opacity="1" fill-rule="nonzero"/><path fill="#ffffff" d="M 86.136719 34.621094 L 85.710938 34.621094 C 85.457031 34.621094 85.25 34.414062 85.25 34.160156 C 85.25 33.902344 85.457031 33.695312 85.710938 33.695312 L 85.757812 33.695312 L 102.550781 16.90625 C 102.730469 16.726562 103.019531 16.726562 103.199219 16.90625 C 103.382812 17.085938 103.382812 17.375 103.199219 17.558594 Z M 86.136719 34.621094 " fill-opacity="1" fill-rule="nonzero"/><path fill="#ffffff" d="M 103.921875 18.390625 C 104.53125 17.78125 104.53125 16.792969 103.921875 16.183594 C 103.3125 15.574219 102.324219 15.574219 101.714844 16.183594 C 101.105469 16.789062 101.105469 17.78125 101.714844 18.390625 C 102.324219 19 103.3125 19 103.921875 18.390625 Z M 103.921875 18.390625 " fill-opacity="1" fill-rule="nonzero"/><path fill="#ffffff" d="M 88.304688 39.332031 C 88.183594 39.332031 88.066406 39.285156 87.976562 39.195312 C 87.796875 39.015625 87.796875 38.722656 87.976562 38.542969 L 98.117188 28.402344 C 98.300781 28.222656 98.589844 28.222656 98.769531 28.402344 C 98.949219 28.582031 98.949219 28.875 98.769531 29.054688 L 88.628906 39.195312 C 88.539062 39.285156 88.421875 39.332031 88.304688 39.332031 Z M 88.304688 39.332031 " fill-opacity="1" fill-rule="nonzero"/><path fill="#ffffff" d="M 99.492188 29.886719 C 100.101562 29.277344 100.101562 28.289062 99.492188 27.679688 C 98.882812 27.066406 97.894531 27.070312 97.285156 27.679688 C 96.675781 28.289062 96.675781 29.277344 97.285156 29.886719 C 97.894531 30.496094 98.882812 30.496094 99.492188 29.886719 Z M 99.492188 29.886719 " fill-opacity="1" fill-rule="nonzero"/><path fill="#ffffff" d="M 80.527344 33.914062 C 80.402344 33.914062 80.273438 33.859375 80.179688 33.753906 C 80.011719 33.5625 80.035156 33.273438 80.222656 33.105469 L 82.097656 31.464844 L 90.460938 23.101562 C 90.640625 22.921875 90.933594 22.921875 91.113281 23.101562 C 91.292969 23.28125 91.292969 23.574219 91.113281 23.753906 L 82.71875 32.148438 L 80.832031 33.796875 C 80.742188 33.875 80.636719 33.910156 80.527344 33.910156 Z M 80.527344 33.914062 " fill-opacity="1" fill-rule="nonzero"/><path fill="#ffffff" d="M 91.835938 24.585938 C 92.445312 23.976562 92.445312 22.988281 91.835938 22.378906 C 91.226562 21.769531 90.238281 21.769531 89.628906 22.378906 C 89.015625 22.988281 89.019531 23.976562 89.628906 24.585938 C 90.238281 25.199219 91.226562 25.195312 91.835938 24.585938 Z M 91.835938 24.585938 " fill-opacity="1" fill-rule="nonzero"/><path fill="#ffffff" d="M 91.140625 23.160156 C 90.882812 23.160156 90.679688 22.953125 90.679688 22.699219 L 90.679688 15.214844 C 90.679688 14.960938 90.882812 14.753906 91.140625 14.753906 C 91.394531 14.753906 91.601562 14.960938 91.601562 15.214844 L 91.601562 22.699219 C 91.601562 22.953125 91.394531 23.160156 91.140625 23.160156 Z M 91.140625 23.160156 " fill-opacity="1" fill-rule="nonzero"/><path fill="#ffffff" d="M 92.699219 15.292969 C 92.699219 14.433594 92 13.734375 91.140625 13.734375 C 90.277344 13.734375 89.578125 14.433594 89.578125 15.292969 C 89.578125 16.15625 90.277344 16.855469 91.140625 16.855469 C 92 16.855469 92.699219 16.15625 92.699219 15.292969 Z M 92.699219 15.292969 " fill-opacity="1" fill-rule="nonzero"/><path fill="#ffffff" d="M 103.125 16.550781 C 102.867188 16.550781 102.664062 16.34375 102.664062 16.089844 L 102.664062 10.660156 C 102.664062 10.40625 102.867188 10.199219 103.125 10.199219 C 103.378906 10.199219 103.585938 10.40625 103.585938 10.660156 L 103.585938 16.089844 C 103.585938 16.34375 103.378906 16.550781 103.125 16.550781 Z M 103.125 16.550781 " fill-opacity="1" fill-rule="nonzero"/><path fill="#ffffff" d="M 104.683594 10.738281 C 104.683594 9.875 103.984375 9.175781 103.125 9.175781 C 102.261719 9.175781 101.5625 9.878906 101.5625 10.738281 C 101.5625 11.597656 102.261719 12.300781 103.125 12.300781 C 103.984375 12.300781 104.683594 11.597656 104.683594 10.738281 Z M 104.683594 10.738281 " fill-opacity="1" fill-rule="nonzero"/><path fill="#ffffff" d="M 101.582031 31.535156 C 101.460938 31.535156 101.34375 31.492188 101.253906 31.398438 L 98.898438 29.042969 C 98.71875 28.863281 98.71875 28.570312 98.898438 28.390625 C 99.078125 28.210938 99.371094 28.210938 99.550781 28.390625 L 101.90625 30.746094 C 102.085938 30.925781 102.085938 31.21875 101.90625 31.398438 C 101.816406 31.492188 101.699219 31.535156 101.582031 31.535156 Z M 101.582031 31.535156 " fill-opacity="1" fill-rule="nonzero"/><path fill="#ffffff" d="M 100.421875 32.121094 C 101.03125 32.730469 102.019531 32.730469 102.628906 32.121094 C 103.238281 31.511719 103.238281 30.523438 102.628906 29.914062 C 102.019531 29.304688 101.03125 29.304688 100.421875 29.914062 C 99.8125 30.523438 99.8125 31.511719 100.421875 32.121094 Z M 100.421875 32.121094 " fill-opacity="1" fill-rule="nonzero"/><path fill="#ffffff" d="M 63.332031 34.148438 C 63.078125 34.148438 62.871094 33.941406 62.871094 33.6875 L 62.871094 14.902344 C 62.871094 14.648438 63.078125 14.441406 63.332031 14.441406 C 63.585938 14.441406 63.792969 14.648438 63.792969 14.902344 L 63.792969 33.6875 C 63.792969 33.941406 63.585938 34.148438 63.332031 34.148438 Z M 63.332031 34.148438 " fill-opacity="1" fill-rule="nonzero"/><path fill="#ffffff" d="M 64.894531 14.984375 C 64.894531 14.121094 64.191406 13.421875 63.332031 13.421875 C 62.472656 13.421875 61.769531 14.121094 61.769531 14.984375 C 61.769531 15.84375 62.472656 16.546875 63.332031 16.546875 C 64.191406 16.546875 64.894531 15.84375 64.894531 14.984375 Z M 64.894531 14.984375 " fill-opacity="1" fill-rule="nonzero"/><path fill="#ffffff" d="M 59.09375 33.914062 C 58.835938 33.914062 58.632812 33.707031 58.632812 33.449219 L 58.632812 22.210938 C 58.632812 21.957031 58.835938 21.75 59.09375 21.75 C 59.347656 21.75 59.554688 21.957031 59.554688 22.210938 L 59.554688 33.449219 C 59.554688 33.707031 59.347656 33.914062 59.09375 33.914062 Z M 59.09375 33.914062 " fill-opacity="1" fill-rule="nonzero"/><path fill="#ffffff" d="M 60.652344 22.289062 C 60.652344 21.425781 59.953125 20.730469 59.09375 20.730469 C 58.230469 20.730469 57.53125 21.429688 57.53125 22.289062 C 57.53125 23.152344 58.230469 23.851562 59.09375 23.851562 C 59.953125 23.851562 60.652344 23.152344 60.652344 22.289062 Z M 60.652344 22.289062 " fill-opacity="1" fill-rule="nonzero"/><path fill="#ffffff" d="M 66.867188 33.675781 C 66.609375 33.675781 66.40625 33.472656 66.40625 33.214844 L 66.40625 12.011719 L 72.371094 6.042969 C 72.550781 5.863281 72.84375 5.863281 73.023438 6.042969 C 73.203125 6.222656 73.203125 6.515625 73.023438 6.695312 L 67.328125 12.394531 L 67.328125 33.214844 C 67.328125 33.472656 67.121094 33.675781 66.867188 33.675781 Z M 66.867188 33.675781 " fill-opacity="1" fill-rule="nonzero"/><g clip-path="url(#17ee21bdff)"><path fill="#ffffff" d="M 73.746094 7.527344 C 74.355469 6.921875 74.355469 5.929688 73.746094 5.320312 C 73.136719 4.710938 72.148438 4.710938 71.539062 5.320312 C 70.929688 5.929688 70.929688 6.917969 71.539062 7.527344 C 72.148438 8.136719 73.136719 8.136719 73.746094 7.527344 Z M 73.746094 7.527344 " fill-opacity="1" fill-rule="nonzero"/></g><path fill="#ffffff" d="M 63.175781 14.195312 C 63.058594 14.195312 62.9375 14.148438 62.847656 14.058594 L 58.195312 9.402344 C 58.015625 9.222656 58.015625 8.929688 58.195312 8.75 C 58.375 8.570312 58.667969 8.570312 58.847656 8.75 L 63.5 13.40625 C 63.679688 13.585938 63.679688 13.878906 63.5 14.058594 C 63.410156 14.148438 63.292969 14.195312 63.175781 14.195312 Z M 63.175781 14.195312 " fill-opacity="1" fill-rule="nonzero"/><path fill="#ffffff" d="M 59.679688 8.027344 C 59.070312 7.421875 58.082031 7.421875 57.472656 8.027344 C 56.863281 8.636719 56.863281 9.625 57.472656 10.238281 C 58.082031 10.847656 59.070312 10.847656 59.679688 10.238281 C 60.289062 9.628906 60.289062 8.640625 59.679688 8.027344 Z M 59.679688 8.027344 " fill-opacity="1" fill-rule="nonzero"/><path fill="#ffffff" d="M 58.550781 21.960938 C 58.429688 21.960938 58.3125 21.917969 58.222656 21.824219 L 55.1875 18.789062 C 55.007812 18.609375 55.007812 18.316406 55.1875 18.136719 C 55.367188 17.957031 55.660156 17.957031 55.839844 18.136719 L 58.875 21.171875 C 59.054688 21.351562 59.054688 21.644531 58.875 21.824219 C 58.785156 21.917969 58.667969 21.960938 58.550781 21.960938 Z M 58.550781 21.960938 " fill-opacity="1" fill-rule="nonzero"/><path fill="#ffffff" d="M 56.671875 17.414062 C 56.0625 16.804688 55.074219 16.804688 54.460938 17.414062 C 53.851562 18.023438 53.851562 19.011719 54.460938 19.621094 C 55.070312 20.230469 56.058594 20.230469 56.671875 19.621094 C 57.28125 19.011719 57.28125 18.023438 56.671875 17.414062 Z M 56.671875 17.414062 " fill-opacity="1" fill-rule="nonzero"/><path fill="#ffffff" d="M 29.175781 66.65625 L 9.921875 66.65625 C 9.667969 66.65625 9.460938 66.449219 9.460938 66.195312 C 9.460938 65.941406 9.667969 65.734375 9.921875 65.734375 L 29.175781 65.734375 C 29.429688 65.734375 29.636719 65.941406 29.636719 66.195312 C 29.636719 66.449219 29.429688 66.65625 29.175781 66.65625 Z M 29.175781 66.65625 " fill-opacity="1" fill-rule="nonzero"/><path fill="#ffffff" d="M 10 64.636719 C 9.136719 64.636719 8.4375 65.335938 8.4375 66.195312 C 8.4375 67.058594 9.140625 67.757812 10 67.757812 C 10.859375 67.757812 11.5625 67.058594 11.5625 66.195312 C 11.5625 65.335938 10.859375 64.636719 10 64.636719 Z M 10 64.636719 " fill-opacity="1" fill-rule="nonzero"/><path fill="#ffffff" d="M 31.292969 70.660156 L 14.222656 70.660156 C 13.964844 70.660156 13.757812 70.457031 13.757812 70.199219 C 13.757812 69.945312 13.964844 69.738281 14.222656 69.738281 L 31.292969 69.738281 C 31.550781 69.738281 31.757812 69.945312 31.757812 70.199219 C 31.757812 70.457031 31.550781 70.660156 31.292969 70.660156 Z M 31.292969 70.660156 " fill-opacity="1" fill-rule="nonzero"/><path fill="#ffffff" d="M 14.300781 68.640625 C 13.4375 68.640625 12.738281 69.339844 12.738281 70.199219 C 12.738281 71.0625 13.4375 71.761719 14.300781 71.761719 C 15.160156 71.761719 15.859375 71.0625 15.859375 70.199219 C 15.859375 69.339844 15.160156 68.640625 14.300781 68.640625 Z M 14.300781 68.640625 " fill-opacity="1" fill-rule="nonzero"/><path fill="#ffffff" d="M 31.53125 62.886719 L 13.214844 62.886719 C 12.957031 62.886719 12.753906 62.683594 12.753906 62.425781 C 12.753906 62.171875 12.957031 61.964844 13.214844 61.964844 L 31.53125 61.964844 C 31.785156 61.964844 31.992188 62.171875 31.992188 62.425781 C 31.992188 62.683594 31.785156 62.886719 31.53125 62.886719 Z M 31.53125 62.886719 " fill-opacity="1" fill-rule="nonzero"/><path fill="#ffffff" d="M 13.289062 60.867188 C 12.429688 60.867188 11.730469 61.566406 11.730469 62.425781 C 11.730469 63.289062 12.429688 63.988281 13.289062 63.988281 C 14.152344 63.988281 14.851562 63.289062 14.851562 62.425781 C 14.851562 61.566406 14.152344 60.867188 13.289062 60.867188 Z M 13.289062 60.867188 " fill-opacity="1" fill-rule="nonzero"/><path fill="#ffffff" d="M 31.453125 101.832031 C 31.335938 101.832031 31.21875 101.789062 31.128906 101.699219 C 30.949219 101.519531 30.949219 101.226562 31.128906 101.046875 L 42.984375 89.191406 C 43.164062 89.011719 43.457031 89.011719 43.636719 89.191406 C 43.816406 89.371094 43.816406 89.664062 43.636719 89.84375 L 31.78125 101.699219 C 31.691406 101.789062 31.574219 101.832031 31.453125 101.832031 Z M 31.453125 101.832031 " fill-opacity="1" fill-rule="nonzero"/><path fill="#ffffff" d="M 30.40625 100.214844 C 29.796875 100.824219 29.796875 101.8125 30.40625 102.421875 C 31.015625 103.03125 32.003906 103.03125 32.613281 102.421875 C 33.222656 101.8125 33.222656 100.824219 32.613281 100.214844 C 32.003906 99.605469 31.015625 99.605469 30.40625 100.214844 Z M 30.40625 100.214844 " fill-opacity="1" fill-rule="nonzero"/><path fill="#ffffff" d="M 31.28125 107.421875 C 31.164062 107.421875 31.046875 107.378906 30.957031 107.289062 C 30.777344 107.109375 30.777344 106.816406 30.957031 106.636719 L 44.632812 92.960938 C 44.8125 92.78125 45.105469 92.78125 45.285156 92.960938 C 45.464844 93.140625 45.464844 93.433594 45.285156 93.613281 L 31.609375 107.289062 C 31.519531 107.378906 31.402344 107.421875 31.28125 107.421875 Z M 31.28125 107.421875 " fill-opacity="1" fill-rule="nonzero"/><path fill="#ffffff" d="M 30.234375 105.800781 C 29.625 106.410156 29.625 107.398438 30.234375 108.011719 C 30.84375 108.621094 31.832031 108.617188 32.441406 108.011719 C 33.054688 107.402344 33.050781 106.414062 32.441406 105.800781 C 31.835938 105.191406 30.84375 105.191406 30.234375 105.800781 Z M 30.234375 105.800781 " fill-opacity="1" fill-rule="nonzero"/><path fill="#ffffff" d="M 40.699219 102.953125 C 40.578125 102.953125 40.460938 102.910156 40.371094 102.820312 C 40.191406 102.640625 40.191406 102.347656 40.371094 102.167969 L 46.515625 96.023438 C 46.695312 95.84375 46.988281 95.84375 47.167969 96.023438 C 47.347656 96.203125 47.347656 96.492188 47.167969 96.671875 L 41.023438 102.820312 C 40.933594 102.910156 40.816406 102.953125 40.699219 102.953125 Z M 40.699219 102.953125 " fill-opacity="1" fill-rule="nonzero"/><path fill="#ffffff" d="M 39.648438 101.335938 C 39.039062 101.945312 39.039062 102.933594 39.648438 103.542969 C 40.257812 104.152344 41.246094 104.152344 41.855469 103.542969 C 42.46875 102.933594 42.464844 101.945312 41.855469 101.335938 C 41.25 100.726562 40.257812 100.726562 39.648438 101.335938 Z M 39.648438 101.335938 " fill-opacity="1" fill-rule="nonzero"/><path fill="#ffffff" d="M 73.226562 113.378906 C 72.96875 113.378906 72.765625 113.171875 72.765625 112.917969 L 72.765625 99.175781 C 72.765625 98.921875 72.96875 98.714844 73.226562 98.714844 C 73.480469 98.714844 73.6875 98.921875 73.6875 99.175781 L 73.6875 112.917969 C 73.6875 113.171875 73.480469 113.378906 73.226562 113.378906 Z M 73.226562 113.378906 " fill-opacity="1" fill-rule="nonzero"/><path fill="#ffffff" d="M 71.664062 112.839844 C 71.664062 113.703125 72.363281 114.398438 73.226562 114.398438 C 74.085938 114.398438 74.785156 113.699219 74.785156 112.839844 C 74.785156 111.976562 74.085938 111.277344 73.226562 111.277344 C 72.363281 111.277344 71.664062 111.976562 71.664062 112.839844 Z M 71.664062 112.839844 " fill-opacity="1" fill-rule="nonzero"/><path fill="#ffffff" d="M 75.582031 109.695312 C 75.328125 109.695312 75.121094 109.492188 75.121094 109.234375 L 75.121094 99.175781 C 75.121094 98.921875 75.328125 98.714844 75.582031 98.714844 C 75.835938 98.714844 76.042969 98.921875 76.042969 99.175781 L 76.042969 109.234375 C 76.042969 109.492188 75.835938 109.695312 75.582031 109.695312 Z M 75.582031 109.695312 " fill-opacity="1" fill-rule="nonzero"/><path fill="#ffffff" d="M 76.402344 107.835938 C 76.578125 107.945312 76.726562 108.082031 76.847656 108.25 C 76.96875 108.417969 77.054688 108.605469 77.101562 108.804688 C 77.148438 109.007812 77.15625 109.210938 77.121094 109.414062 C 77.089844 109.617188 77.019531 109.808594 76.910156 109.984375 C 76.800781 110.160156 76.664062 110.308594 76.496094 110.429688 C 76.328125 110.550781 76.140625 110.636719 75.941406 110.683594 C 75.738281 110.730469 75.535156 110.738281 75.332031 110.703125 C 75.128906 110.671875 74.9375 110.601562 74.761719 110.492188 C 74.585938 110.382812 74.4375 110.242188 74.316406 110.074219 C 74.195312 109.90625 74.109375 109.722656 74.0625 109.523438 C 74.015625 109.320312 74.007812 109.117188 74.042969 108.914062 C 74.074219 108.710938 74.144531 108.519531 74.253906 108.34375 C 74.363281 108.167969 74.5 108.019531 74.667969 107.898438 C 74.835938 107.777344 75.023438 107.691406 75.222656 107.644531 C 75.425781 107.597656 75.628906 107.589844 75.832031 107.621094 C 76.035156 107.65625 76.226562 107.726562 76.402344 107.835938 Z M 76.402344 107.835938 " fill-opacity="1" fill-rule="nonzero"/><path fill="#ffffff" d="M 78.40625 119.078125 C 78.152344 119.078125 77.945312 118.871094 77.945312 118.617188 L 77.945312 98.9375 C 77.945312 98.683594 78.152344 98.476562 78.40625 98.476562 C 78.664062 98.476562 78.871094 98.683594 78.871094 98.9375 L 78.871094 118.617188 C 78.871094 118.871094 78.664062 119.078125 78.40625 119.078125 Z M 78.40625 119.078125 " fill-opacity="1" fill-rule="nonzero"/><g clip-path="url(#2d50702a50)"><path fill="#ffffff" d="M 79.851562 117.941406 C 79.929688 118.132812 79.96875 118.332031 79.96875 118.539062 C 79.96875 118.746094 79.929688 118.945312 79.851562 119.136719 C 79.773438 119.328125 79.660156 119.496094 79.511719 119.640625 C 79.367188 119.789062 79.199219 119.902344 79.007812 119.980469 C 78.816406 120.058594 78.617188 120.097656 78.410156 120.097656 C 78.203125 120.097656 78.003906 120.058594 77.8125 119.980469 C 77.621094 119.902344 77.453125 119.789062 77.304688 119.640625 C 77.160156 119.496094 77.046875 119.328125 76.96875 119.136719 C 76.886719 118.945312 76.847656 118.746094 76.847656 118.539062 C 76.847656 118.332031 76.886719 118.132812 76.96875 117.941406 C 77.046875 117.75 77.160156 117.582031 77.304688 117.433594 C 77.453125 117.289062 77.621094 117.175781 77.8125 117.097656 C 78.003906 117.015625 78.203125 116.976562 78.410156 116.976562 C 78.617188 116.976562 78.816406 117.015625 79.007812 117.097656 C 79.199219 117.175781 79.367188 117.289062 79.511719 117.433594 C 79.660156 117.582031 79.773438 117.75 79.851562 117.941406 Z M 79.851562 117.941406 " fill-opacity="1" fill-rule="nonzero"/></g><path fill="#ffffff" d="M 108.082031 106.460938 C 107.964844 106.460938 107.847656 106.414062 107.757812 106.324219 L 90.804688 89.371094 C 90.625 89.191406 90.625 88.898438 90.804688 88.71875 C 90.984375 88.539062 91.277344 88.539062 91.457031 88.71875 L 108.410156 105.671875 C 108.589844 105.851562 108.589844 106.144531 108.410156 106.324219 C 108.320312 106.414062 108.203125 106.460938 108.082031 106.460938 Z M 108.082031 106.460938 " fill-opacity="1" fill-rule="nonzero"/><path fill="#ffffff" d="M 106.925781 107.046875 C 107.53125 107.65625 108.523438 107.65625 109.132812 107.046875 C 109.742188 106.4375 109.742188 105.449219 109.132812 104.839844 C 108.523438 104.230469 107.535156 104.230469 106.925781 104.839844 C 106.3125 105.449219 106.316406 106.4375 106.925781 107.046875 Z M 106.925781 107.046875 " fill-opacity="1" fill-rule="nonzero"/><path fill="#ffffff" d="M 107.070312 102.148438 C 106.953125 102.148438 106.832031 102.105469 106.746094 102.015625 L 92.21875 87.488281 C 92.039062 87.308594 92.039062 87.015625 92.21875 86.835938 C 92.398438 86.65625 92.6875 86.65625 92.867188 86.835938 L 107.394531 101.363281 C 107.574219 101.542969 107.574219 101.835938 107.394531 102.015625 C 107.304688 102.105469 107.1875 102.148438 107.070312 102.148438 Z M 107.070312 102.148438 " fill-opacity="1" fill-rule="nonzero"/><path fill="#ffffff" d="M 105.914062 102.738281 C 106.519531 103.347656 107.511719 103.347656 108.121094 102.738281 C 108.730469 102.128906 108.730469 101.140625 108.121094 100.527344 C 107.511719 99.917969 106.523438 99.921875 105.914062 100.527344 C 105.300781 101.136719 105.304688 102.125 105.914062 102.738281 Z M 105.914062 102.738281 " fill-opacity="1" fill-rule="nonzero"/><path fill="#ffffff" d="M 104.253906 94.152344 C 104.136719 94.152344 104.019531 94.105469 103.929688 94.015625 L 93.628906 83.71875 C 93.449219 83.539062 93.449219 83.246094 93.628906 83.066406 C 93.808594 82.886719 94.101562 82.886719 94.28125 83.066406 L 104.582031 93.363281 C 104.761719 93.542969 104.761719 93.835938 104.582031 94.015625 C 104.488281 94.105469 104.371094 94.152344 104.253906 94.152344 Z M 104.253906 94.152344 " fill-opacity="1" fill-rule="nonzero"/><path fill="#ffffff" d="M 103.09375 94.738281 C 103.703125 95.347656 104.691406 95.347656 105.304688 94.738281 C 105.914062 94.128906 105.914062 93.140625 105.304688 92.53125 C 104.695312 91.921875 103.707031 91.921875 103.09375 92.53125 C 102.484375 93.140625 102.484375 94.128906 103.09375 94.738281 Z M 103.09375 94.738281 " fill-opacity="1" fill-rule="nonzero"/><path fill="#ffffff" d="M 38.125 50.167969 C 38.007812 50.167969 37.890625 50.125 37.800781 50.03125 L 22.355469 34.589844 C 22.175781 34.410156 22.175781 34.117188 22.355469 33.9375 C 22.539062 33.757812 22.828125 33.757812 23.007812 33.9375 L 38.453125 49.378906 C 38.632812 49.558594 38.632812 49.851562 38.453125 50.03125 C 38.363281 50.125 38.246094 50.167969 38.125 50.167969 Z M 38.125 50.167969 " fill-opacity="1" fill-rule="nonzero"/><path fill="#ffffff" d="M 23.84375 33.214844 C 23.234375 32.605469 22.246094 32.605469 21.632812 33.214844 C 21.027344 33.824219 21.027344 34.8125 21.632812 35.421875 C 22.242188 36.03125 23.230469 36.03125 23.84375 35.421875 C 24.453125 34.8125 24.453125 33.824219 23.84375 33.214844 Z M 23.84375 33.214844 " fill-opacity="1" fill-rule="nonzero"/><path fill="#ffffff" d="M 40.011719 48.046875 C 39.890625 48.046875 39.773438 48.003906 39.683594 47.910156 L 24.707031 32.933594 C 24.527344 32.753906 24.527344 32.460938 24.707031 32.28125 C 24.886719 32.101562 25.179688 32.101562 25.359375 32.28125 L 40.335938 47.261719 C 40.515625 47.441406 40.515625 47.730469 40.335938 47.910156 C 40.246094 48.003906 40.128906 48.046875 40.011719 48.046875 Z M 40.011719 48.046875 " fill-opacity="1" fill-rule="nonzero"/><path fill="#ffffff" d="M 26.191406 31.558594 C 25.582031 30.949219 24.59375 30.949219 23.984375 31.558594 C 23.375 32.167969 23.375 33.15625 23.984375 33.769531 C 24.59375 34.375 25.582031 34.375 26.191406 33.769531 C 26.800781 33.160156 26.800781 32.171875 26.191406 31.558594 Z M 26.191406 31.558594 " fill-opacity="1" fill-rule="nonzero"/><path fill="#ffffff" d="M 41.894531 46.160156 C 41.777344 46.160156 41.660156 46.117188 41.570312 46.027344 L 31.691406 36.148438 C 31.511719 35.964844 31.511719 35.675781 31.691406 35.496094 C 31.871094 35.316406 32.160156 35.316406 32.34375 35.496094 L 42.222656 45.375 C 42.402344 45.554688 42.402344 45.847656 42.222656 46.027344 C 42.132812 46.117188 42.015625 46.160156 41.894531 46.160156 Z M 41.894531 46.160156 " fill-opacity="1" fill-rule="nonzero"/><path fill="#ffffff" d="M 33.175781 34.773438 C 32.566406 34.164062 31.578125 34.164062 30.96875 34.773438 C 30.355469 35.382812 30.359375 36.371094 30.96875 36.980469 C 31.574219 37.589844 32.566406 37.589844 33.175781 36.980469 C 33.785156 36.371094 33.785156 35.382812 33.175781 34.773438 Z M 33.175781 34.773438 " fill-opacity="1" fill-rule="nonzero"/><path fill="#ffffff" d="M 31.667969 35.484375 C 31.597656 35.484375 31.527344 35.46875 31.460938 35.433594 C 31.234375 35.320312 31.140625 35.042969 31.257812 34.816406 L 33.578125 30.175781 C 33.691406 29.949219 33.96875 29.855469 34.195312 29.96875 C 34.421875 30.082031 34.515625 30.359375 34.402344 30.585938 L 32.082031 35.230469 C 32 35.390625 31.835938 35.484375 31.667969 35.484375 Z M 31.667969 35.484375 " fill-opacity="1" fill-rule="nonzero"/><path fill="#ffffff" d="M 35.351562 31.148438 C 35.734375 30.378906 35.421875 29.441406 34.652344 29.054688 C 33.882812 28.667969 32.941406 28.980469 32.558594 29.753906 C 32.171875 30.523438 32.484375 31.460938 33.253906 31.847656 C 34.027344 32.234375 34.964844 31.917969 35.351562 31.148438 Z M 35.351562 31.148438 " fill-opacity="1" fill-rule="nonzero"/><path fill="#ffffff" d="M 24.765625 32.039062 C 24.695312 32.039062 24.628906 32.023438 24.5625 31.992188 C 24.332031 31.878906 24.238281 31.605469 24.351562 31.375 L 26.839844 26.269531 C 26.953125 26.039062 27.230469 25.945312 27.457031 26.054688 C 27.6875 26.167969 27.78125 26.445312 27.671875 26.671875 L 25.179688 31.78125 C 25.097656 31.945312 24.933594 32.039062 24.765625 32.039062 Z M 24.765625 32.039062 " fill-opacity="1" fill-rule="nonzero"/><path fill="#ffffff" d="M 28.625 27.222656 C 29 26.449219 28.679688 25.515625 27.90625 25.136719 C 27.128906 24.757812 26.195312 25.082031 25.820312 25.855469 C 25.441406 26.632812 25.761719 27.566406 26.535156 27.941406 C 27.3125 28.320312 28.246094 28 28.625 27.222656 Z M 28.625 27.222656 " fill-opacity="1" fill-rule="nonzero"/><path fill="#ffffff" d="M 21.320312 34.691406 C 21.300781 34.691406 21.285156 34.691406 21.265625 34.6875 L 14.417969 33.914062 C 14.164062 33.882812 13.980469 33.65625 14.011719 33.402344 C 14.039062 33.148438 14.265625 32.96875 14.519531 32.996094 L 21.371094 33.773438 C 21.625 33.800781 21.808594 34.027344 21.777344 34.28125 C 21.75 34.519531 21.550781 34.691406 21.320312 34.691406 Z M 21.320312 34.691406 " fill-opacity="1" fill-rule="nonzero"/><path fill="#ffffff" d="M 14.722656 31.910156 C 13.867188 31.816406 13.09375 32.429688 12.996094 33.289062 C 12.898438 34.144531 13.515625 34.917969 14.371094 35.015625 C 15.226562 35.113281 16 34.496094 16.097656 33.636719 C 16.195312 32.78125 15.582031 32.007812 14.722656 31.910156 Z M 14.722656 31.910156 " fill-opacity="1" fill-rule="nonzero"/><path fill="#ffffff" d="M 12.511719 62.964844 C 12.390625 62.964844 12.265625 62.917969 12.175781 62.820312 C 12 62.636719 12.007812 62.34375 12.191406 62.167969 L 17.242188 57.378906 C 17.425781 57.203125 17.71875 57.210938 17.894531 57.398438 C 18.070312 57.582031 18.0625 57.875 17.875 58.046875 L 12.828125 62.839844 C 12.738281 62.921875 12.625 62.964844 12.511719 62.964844 Z M 12.511719 62.964844 " fill-opacity="1" fill-rule="nonzero"/><path fill="#ffffff" d="M 18.578125 58.902344 C 19.203125 58.308594 19.230469 57.320312 18.636719 56.695312 C 18.042969 56.066406 17.058594 56.042969 16.429688 56.636719 C 15.804688 57.230469 15.777344 58.214844 16.371094 58.84375 C 16.964844 59.46875 17.953125 59.496094 18.578125 58.902344 Z M 18.578125 58.902344 " fill-opacity="1" fill-rule="nonzero"/><path fill="#ffffff" d="M 4.03125 70.03125 C 3.878906 70.03125 3.726562 69.957031 3.640625 69.816406 C 3.503906 69.597656 3.570312 69.3125 3.785156 69.179688 L 8.808594 66.039062 C 9.023438 65.90625 9.3125 65.972656 9.445312 66.1875 C 9.578125 66.402344 9.515625 66.6875 9.296875 66.820312 L 4.273438 69.960938 C 4.199219 70.007812 4.113281 70.03125 4.03125 70.03125 Z M 4.03125 70.03125 " fill-opacity="1" fill-rule="nonzero"/><g clip-path="url(#5e99955ac8)"><path fill="#ffffff" d="M 3.269531 68.207031 C 2.539062 68.664062 2.316406 69.625 2.773438 70.355469 C 3.230469 71.089844 4.195312 71.308594 4.925781 70.855469 C 5.65625 70.398438 5.878906 69.433594 5.421875 68.703125 C 4.964844 67.96875 4.003906 67.75 3.269531 68.207031 Z M 3.269531 68.207031 " fill-opacity="1" fill-rule="nonzero"/></g><path fill="#ffffff" d="M 18.011719 74.546875 C 17.898438 74.546875 17.785156 74.503906 17.699219 74.425781 L 13.296875 70.398438 C 13.109375 70.226562 13.09375 69.933594 13.269531 69.746094 C 13.441406 69.558594 13.730469 69.546875 13.917969 69.71875 L 18.320312 73.742188 C 18.511719 73.914062 18.523438 74.207031 18.351562 74.394531 C 18.261719 74.496094 18.136719 74.546875 18.011719 74.546875 Z M 18.011719 74.546875 " fill-opacity="1" fill-rule="nonzero"/><path fill="#ffffff" d="M 16.898438 75.183594 C 17.535156 75.765625 18.523438 75.722656 19.101562 75.085938 C 19.683594 74.449219 19.640625 73.460938 19.003906 72.878906 C 18.367188 72.300781 17.382812 72.34375 16.800781 72.980469 C 16.21875 73.613281 16.261719 74.601562 16.898438 75.183594 Z M 16.898438 75.183594 " fill-opacity="1" fill-rule="nonzero"/><path fill="#ffffff" d="M 31.183594 102.082031 C 30.972656 102.082031 30.78125 101.9375 30.734375 101.722656 L 29.648438 96.890625 C 29.59375 96.640625 29.746094 96.394531 29.996094 96.339844 C 30.246094 96.285156 30.492188 96.4375 30.550781 96.6875 L 31.636719 101.523438 C 31.691406 101.769531 31.535156 102.015625 31.285156 102.074219 C 31.253906 102.082031 31.21875 102.082031 31.183594 102.082031 Z M 31.183594 102.082031 " fill-opacity="1" fill-rule="nonzero"/><path fill="#ffffff" d="M 31.636719 96.523438 C 31.445312 95.679688 30.613281 95.152344 29.769531 95.339844 C 28.929688 95.53125 28.402344 96.363281 28.589844 97.207031 C 28.777344 98.046875 29.613281 98.574219 30.453125 98.386719 C 31.296875 98.199219 31.824219 97.363281 31.636719 96.523438 Z M 31.636719 96.523438 " fill-opacity="1" fill-rule="nonzero"/><path fill="#ffffff" d="M 34.503906 109.78125 C 34.445312 109.78125 34.382812 109.769531 34.324219 109.746094 L 30.738281 108.207031 C 30.503906 108.109375 30.398438 107.835938 30.496094 107.601562 C 30.597656 107.367188 30.867188 107.257812 31.101562 107.359375 L 34.6875 108.894531 C 34.921875 108.996094 35.03125 109.269531 34.929688 109.5 C 34.855469 109.675781 34.683594 109.78125 34.503906 109.78125 Z M 34.503906 109.78125 " fill-opacity="1" fill-rule="nonzero"/><path fill="#ffffff" d="M 33.820312 110.722656 C 34.613281 111.0625 35.53125 110.695312 35.871094 109.90625 C 36.210938 109.113281 35.839844 108.195312 35.050781 107.855469 C 34.257812 107.515625 33.339844 107.882812 33 108.675781 C 32.660156 109.464844 33.027344 110.382812 33.820312 110.722656 Z M 33.820312 110.722656 " fill-opacity="1" fill-rule="nonzero"/><path fill="#ffffff" d="M 44.878906 107.453125 C 44.757812 107.453125 44.640625 107.40625 44.550781 107.316406 L 39.945312 102.710938 C 39.765625 102.53125 39.765625 102.238281 39.945312 102.058594 C 40.125 101.878906 40.417969 101.878906 40.597656 102.058594 L 45.203125 106.664062 C 45.382812 106.84375 45.382812 107.136719 45.203125 107.316406 C 45.113281 107.40625 44.996094 107.453125 44.878906 107.453125 Z M 44.878906 107.453125 " fill-opacity="1" fill-rule="nonzero"/><path fill="#ffffff" d="M 43.71875 108.039062 C 44.328125 108.648438 45.316406 108.648438 45.925781 108.039062 C 46.535156 107.429688 46.535156 106.441406 45.925781 105.832031 C 45.316406 105.21875 44.328125 105.222656 43.71875 105.832031 C 43.109375 106.441406 43.109375 107.429688 43.71875 108.039062 Z M 43.71875 108.039062 " fill-opacity="1" fill-rule="nonzero"/><path fill="#ffffff" d="M 67.722656 113.652344 C 67.476562 113.652344 67.269531 113.457031 67.261719 113.207031 C 67.25 112.949219 67.453125 112.738281 67.707031 112.730469 L 72.9375 112.546875 C 73.199219 112.539062 73.40625 112.738281 73.414062 112.992188 C 73.421875 113.246094 73.222656 113.460938 72.96875 113.46875 L 67.738281 113.652344 C 67.738281 113.652344 67.726562 113.652344 67.722656 113.652344 Z M 67.722656 113.652344 " fill-opacity="1" fill-rule="nonzero"/><path fill="#ffffff" d="M 67.746094 111.625 C 66.886719 111.65625 66.210938 112.378906 66.242188 113.238281 C 66.273438 114.101562 66.996094 114.777344 67.855469 114.746094 C 68.71875 114.714844 69.390625 113.992188 69.363281 113.128906 C 69.332031 112.269531 68.609375 111.59375 67.746094 111.625 Z M 67.746094 111.625 " fill-opacity="1" fill-rule="nonzero"/><g clip-path="url(#bb817153ce)"><path fill="#ffffff" d="M 78.527344 120.035156 C 78.378906 120.035156 78.234375 119.964844 78.144531 119.832031 C 78.003906 119.621094 78.054688 119.335938 78.265625 119.191406 L 82.929688 116.019531 C 83.140625 115.878906 83.425781 115.929688 83.570312 116.140625 C 83.714844 116.351562 83.660156 116.640625 83.449219 116.78125 L 78.785156 119.953125 C 78.707031 120.007812 78.617188 120.035156 78.527344 120.035156 Z M 78.527344 120.035156 " fill-opacity="1" fill-rule="nonzero"/></g><path fill="#ffffff" d="M 84.003906 117.738281 C 84.714844 117.25 84.902344 116.28125 84.417969 115.566406 C 83.933594 114.855469 82.960938 114.671875 82.246094 115.15625 C 81.535156 115.640625 81.351562 116.609375 81.835938 117.324219 C 82.320312 118.035156 83.289062 118.222656 84.003906 117.738281 Z M 84.003906 117.738281 " fill-opacity="1" fill-rule="nonzero"/><path fill="#ffffff" d="M 105.382812 93.859375 C 105.234375 93.859375 105.089844 93.789062 105 93.660156 C 104.855469 93.449219 104.910156 93.160156 105.121094 93.015625 L 109.550781 89.972656 C 109.761719 89.828125 110.046875 89.878906 110.191406 90.089844 C 110.335938 90.300781 110.285156 90.585938 110.074219 90.730469 L 105.644531 93.777344 C 105.5625 93.832031 105.472656 93.859375 105.382812 93.859375 Z M 105.382812 93.859375 " fill-opacity="1" fill-rule="nonzero"/><path fill="#ffffff" d="M 110.632812 91.679688 C 111.34375 91.191406 111.523438 90.21875 111.035156 89.507812 C 110.546875 88.800781 109.574219 88.617188 108.863281 89.109375 C 108.152344 89.597656 107.972656 90.570312 108.460938 91.28125 C 108.949219 91.988281 109.921875 92.167969 110.632812 91.679688 Z M 110.632812 91.679688 " fill-opacity="1" fill-rule="nonzero"/><path fill="#ffffff" d="M 108.199219 101.796875 C 108.09375 101.796875 107.984375 101.757812 107.898438 101.683594 C 107.707031 101.519531 107.683594 101.230469 107.847656 101.035156 L 111.125 97.214844 C 111.289062 97.019531 111.582031 97 111.773438 97.164062 C 111.96875 97.328125 111.988281 97.621094 111.824219 97.8125 L 108.550781 101.632812 C 108.457031 101.742188 108.328125 101.796875 108.199219 101.796875 Z M 108.199219 101.796875 " fill-opacity="1" fill-rule="nonzero"/><path fill="#ffffff" d="M 112.609375 98.589844 C 113.167969 97.933594 113.09375 96.949219 112.4375 96.386719 C 111.785156 95.828125 110.796875 95.902344 110.238281 96.558594 C 109.675781 97.210938 109.753906 98.199219 110.40625 98.757812 C 111.0625 99.320312 112.046875 99.242188 112.609375 98.589844 Z M 112.609375 98.589844 " fill-opacity="1" fill-rule="nonzero"/><path fill="#ffffff" d="M 104.902344 110.507812 C 104.777344 110.507812 104.65625 110.457031 104.5625 110.359375 C 104.390625 110.171875 104.402344 109.882812 104.589844 109.707031 L 108.449219 106.125 C 108.632812 105.949219 108.925781 105.960938 109.101562 106.148438 C 109.273438 106.332031 109.261719 106.625 109.074219 106.800781 L 105.214844 110.382812 C 105.125 110.46875 105.015625 110.507812 104.902344 110.507812 Z M 104.902344 110.507812 " fill-opacity="1" fill-rule="nonzero"/><path fill="#ffffff" d="M 103.894531 108.851562 C 103.265625 109.4375 103.226562 110.425781 103.816406 111.054688 C 104.402344 111.6875 105.390625 111.726562 106.019531 111.136719 C 106.652344 110.550781 106.691406 109.5625 106.101562 108.929688 C 105.515625 108.300781 104.527344 108.261719 103.894531 108.851562 Z M 103.894531 108.851562 " fill-opacity="1" fill-rule="nonzero"/><g clip-path="url(#9838f04058)"><path fill="#ffffff" d="M 48.355469 67.003906 C 48.355469 56.835938 56.328125 48.519531 66.347656 47.914062 L 69.253906 44.121094 C 68.671875 44.074219 68.089844 44.03125 67.496094 44.03125 C 54.8125 44.03125 44.523438 54.316406 44.523438 67.003906 C 44.523438 75.410156 49.054688 82.738281 55.789062 86.742188 L 56.785156 82.859375 C 51.703125 79.417969 48.355469 73.589844 48.355469 67.003906 Z M 48.355469 67.003906 " fill-opacity="1" fill-rule="nonzero"/></g><g clip-path="url(#9df617cf17)"><path fill="#ffffff" d="M 79.125 47.214844 L 78.074219 51.0625 C 83.234375 54.496094 86.640625 60.355469 86.640625 67.003906 C 86.640625 77.167969 78.667969 85.488281 68.648438 86.089844 L 65.742188 89.886719 C 66.324219 89.933594 66.90625 89.976562 67.496094 89.976562 C 80.183594 89.976562 90.46875 79.691406 90.46875 67.003906 C 90.46875 58.566406 85.90625 51.210938 79.125 47.214844 Z M 79.125 47.214844 " fill-opacity="1" fill-rule="nonzero"/></g><g clip-path="url(#8412ebbaf7)"><path fill="#ffffff" d="M 82.8125 61.261719 L 71.328125 61.261719 L 72.453125 57.128906 L 74.605469 49.242188 L 75.613281 45.535156 L 77.070312 40.203125 L 73.511719 44.855469 L 70.964844 48.1875 L 64.59375 56.519531 L 52.183594 72.746094 L 63.667969 72.746094 L 62.550781 76.851562 L 60.390625 84.761719 L 59.382812 88.472656 L 57.925781 93.804688 L 61.484375 89.152344 L 64.03125 85.816406 L 70.484375 77.378906 Z M 82.8125 61.261719 " fill-opacity="1" fill-rule="nonzero"/></g></svg>